<svg id="圖層_1" data-name="圖層 1" xmlns="http://www.w3.org/2000/svg" viewBox="0 0 927 270"><path d="M124.07,237.05h-.19l-8.07-.8a37.8,37.8,0,0,1-19-7l-5.17-3.81a2,2,0,0,1-.77-2l1.3-6.29a321.07,321.07,0,0,1,14.91-51l3.09-7.95A2,2,0,0,1,112.5,157l8.34,1.8a55.35,55.35,0,0,1,16.65,6.62l1.71,1,0-.19a2,2,0,0,1,2-1.79h9a126.08,126.08,0,0,1,14.17,1.06l8.87,1a2,2,0,0,1,1.78,2v8.93a395.57,395.57,0,0,1-2.47,44.53l-1,8.89a2,2,0,0,1-2,1.78h-8.94a118.26,118.26,0,0,1-13.32-1l-9.51-1.08a2,2,0,0,1-1.77-2v-8.93c0-5.88.11-11.77.34-17.61-2.36,8-5,16.61-8,25.93L126,235.66A2,2,0,0,1,124.07,237.05Zm-29-14,4.14,3a33.78,33.78,0,0,0,17,6.21l6.45.64,2-6.18c5.24-16.49,9.48-30.71,13-43.47a2,2,0,0,1,3.92.69c-1,11.68-1.44,23.68-1.44,35.67v7.14l7.73.88a112.21,112.21,0,0,0,12.87,1h7.15l.8-7.11a392.59,392.59,0,0,0,2.44-44.09v-7.15l-7.1-.8a122.55,122.55,0,0,0-13.72-1H143l-.16,1.51a2,2,0,0,1-1.09,1.58,2,2,0,0,1-1.92-.07l-4.4-2.63A51.32,51.32,0,0,0,120,162.66l-6.67-1.44-2.48,6.36A317.82,317.82,0,0,0,96.13,218Z"/><path d="M74.2,210.13c-5.91,0-9.47,0-13.1-2.06l-4.65-2.64a2,2,0,0,1-1-1.6l-.6-8.29c-.29-4.08-.58-8-.85-11.94-1.54.92-3.12,1.84-4.72,2.75l-6.85,3.89a2,2,0,0,1-2.45-.37l-5.39-5.76A50.64,50.64,0,0,1,24.07,167l-2.45-6.61a2,2,0,0,1,.59-2.23l5.4-4.53A274.57,274.57,0,0,1,51,136.1a153.45,153.45,0,0,1-16.37-1.68l-6.17-1a2,2,0,0,1-1.59-1.4l-1.76-6a37.4,37.4,0,0,1-1.36-10.79,42.36,42.36,0,0,1,.72-9.49l1.72-7.85a2,2,0,0,1,2-1.57h8c4.39,0,9.35-.09,14.18-.2-.12-7-.12-13.94-.12-20.63V69.62a2,2,0,0,1,1-1.74L56.33,65c2.48-1.41,5.52-2.18,11.59-3l.62-.08h.88a34.69,34.69,0,0,1,10.66,1.57l6.35,2.06a2,2,0,0,1,1.37,1.74l.55,6.8c.57,7.19,1.17,14.62,1.69,22.12,3.85.23,7.13.52,9.78.86l7.82,1,.35.08c.64-2.2,1.3-4.4,2-6.57-1.75-.16-3.49-.34-5.19-.54l-6.07-.69a2,2,0,0,1-1.65-1.28l-2.15-5.71c-1.37-3.61-1.64-7.66-1.64-12.63a30.11,30.11,0,0,1,2.91-13.1l2.89-6A2,2,0,0,1,101,50.51l6.66.35c10.27.55,20.32,1.08,30.12,1.51a78.85,78.85,0,0,1,2-10.85l1.77-6.69a2,2,0,0,1,1.73-1.48l6.87-.71a86.59,86.59,0,0,1,9.27-.56,32.29,32.29,0,0,1,12.19,2.39L177.72,37A2,2,0,0,1,179,38.88v6.69c0,2.9-.09,5.84-.26,8.93,8.75.48,18.89,1.07,29.29,1.81l9.3.66a2,2,0,0,1,1.85,2V75.44a57.27,57.27,0,0,1-1.09,11.19l-1.6,8.17a2,2,0,0,1-2,1.62l-8.33-.1c-19.6-.22-37.53-.83-54.78-1.85-2.37,9.36-4.69,18.9-6.91,28.41,9,1.2,19.42,2.49,31.09,3.85-.44-2.88-.78-5.88-1-9l-.48-6.69a2,2,0,0,1,1.1-1.93l6-3a61.54,61.54,0,0,1,14.75-4.94L203,99.7a2,2,0,0,1,2.15.94l3.66,6.25c4.91,8.37,8.36,19.94,10.24,34.39l.81,6.21a2,2,0,0,1-.88,1.93l-5.23,3.44a40.57,40.57,0,0,1-17.26,6.57l-5.08.64-.61,3.48a2,2,0,0,1-2,1.65h-8.4c-25.76,0-47.68-2.16-66.91-6.61l-.42,1.45a71.92,71.92,0,0,1-6.81,16.27l-3.84,6.53a2,2,0,0,1-2.23.93L93.27,182c0,5,.1,10.13.1,15.19v6.61a2,2,0,0,1-1.21,1.84l-6.08,2.59A30.36,30.36,0,0,1,74.2,210.13Zm-14.84-7.65,3.72,2.11c2.71,1.54,5.52,1.54,11.12,1.54,3,0,6.92-.18,10.31-1.63l4.86-2.07v-5.29c0-5.45-.05-11-.11-16.33v-1.44a2,2,0,0,1,2.56-2c.69.2,1.39.39,2.09.57l5.86,1.54,3.07-5.23a68.19,68.19,0,0,0,6.42-15.37l1-3.27a2,2,0,0,1,2.39-1.38c19.36,4.67,41.55,6.94,67.82,6.94h6.72l.58-3.28a2,2,0,0,1,1.72-1.63l6.54-.83a36.73,36.73,0,0,0,15.56-5.94l4.18-2.76-.64-5c-1.82-13.92-5.09-25-9.73-32.89l-2.93-5-5.66,1.22A57.85,57.85,0,0,0,183,109.75l-4.81,2.38.39,5.35a102.16,102.16,0,0,0,1.4,11.18,2,2,0,0,1-.51,1.73,2,2,0,0,1-1.69.62c-13.75-1.59-25.86-3.09-36-4.46a2,2,0,0,1-1.68-2.43c2.51-10.79,5.15-21.63,7.83-32.24a2,2,0,0,1,2.06-1.5c17.7,1.07,36.09,1.71,56.24,1.94l6.67.08,1.28-6.54a54,54,0,0,0,1-10.42V60.83l-7.43-.53c-11.18-.8-22.07-1.42-31.24-1.92a2,2,0,0,1-1.39-.67,2.05,2.05,0,0,1-.5-1.46c.25-3.75.38-7.24.38-10.68V40.21l-5-2a28.24,28.24,0,0,0-10.66-2.09,82.92,82.92,0,0,0-8.86.54l-5.5.57-1.41,5.35a79.49,79.49,0,0,0-2.05,12.1,2,2,0,0,1-2.07,1.8c-10.41-.44-21.09-1-32-1.58l-5.33-.29-2.31,4.82a26.09,26.09,0,0,0-2.52,11.36c0,4.53.23,8.17,1.38,11.21l1.72,4.58,4.86.55c2.47.28,5,.53,7.56.74a2,2,0,0,1,1.5.88,2,2,0,0,1,.24,1.72c-1.64,5.14-3.19,10.42-4.6,15.7a2,2,0,0,1-3.92-.3l-.43-4-6.26-.79c-2.91-.37-6.8-.7-11.26-.94a2,2,0,0,1-1.89-1.86C85.62,90.2,85,82.19,84.36,74.45L83.92,69l-5.08-1.65A30.94,30.94,0,0,0,69.42,66h-.5l-.5.06c-5.49.69-8.14,1.34-10.12,2.46l-4,2.3v4.66c0,7.3,0,14.85.15,22.55a2,2,0,0,1-1.95,2c-5.47.13-11.22.25-16.26.25H29.76l-1.39,6.28a39.78,39.78,0,0,0-.62,8.63,33.49,33.49,0,0,0,1.2,9.66l1.41,4.81,4.93.83a164.14,164.14,0,0,0,18.13,1.75,2,2,0,0,1,1.9,1.92c0,.88.07,1.76.11,2.64a2,2,0,0,1-.89,1.76A269.88,269.88,0,0,0,30.18,156.7l-4.32,3.62,2,5.29a46.83,46.83,0,0,0,9.69,15.77L41.82,186l5.49-3.12c2.55-1.45,5-2.92,7.41-4.38a2,2,0,0,1,3,1.56c.34,5,.71,10,1.08,15.14Zm32,1.27h0Zm8.5-57.49a2,2,0,0,1-1-.24c-3.23-1.76-6.43-3.44-9.51-5a2,2,0,0,1-1.09-1.71l-.18-4.95A2,2,0,0,1,90,132.29c5.21-.33,8.77-1,11.2-2a2,2,0,0,1,2,.29,2,2,0,0,1,.7,1.93c-.71,3.76-1.39,7.63-2,11.5l-.09.55a2,2,0,0,1-1.09,1.48A2,2,0,0,1,99.87,146.26ZM92.26,138c2,1,4,2.08,6.08,3.18.34-2,.7-4.09,1.06-6.1a48.48,48.48,0,0,1-7.2,1.07Z"/><path d="M198.67,236.3c-11.82,0-16.39-1.22-19.61-3.05L174,230.38a2,2,0,0,1-1-1.74v-5.82c0-8.39.64-23.24,2-45.4l.57-9.4a2,2,0,0,1,2-1.88h9.42a137.56,137.56,0,0,1,14,1l9.69,1a2,2,0,0,1,1.79,2v9c0,5,0,10-.11,15.22l0,4.38h5.91a2,2,0,0,1,1.77,1.07l2.81,5.33a24.6,24.6,0,0,1,2.48,11.53,75,75,0,0,1-.5,7.58l-.74,7.61a2,2,0,0,1-1.65,1.77l-7.53,1.29A96.65,96.65,0,0,1,198.67,236.3ZM177,227.48l4,2.29c2.31,1.32,6.05,2.53,17.64,2.53A91.93,91.93,0,0,0,214.14,231l6-1,.59-6.08c.24-2.38.48-4.83.48-7.2a20.62,20.62,0,0,0-2-9.66L217,202.72h-6.75a2,2,0,0,1-2-2l.06-6.36c.06-5.26.11-10.2.11-15.21v-7.21l-7.89-.82a134.64,134.64,0,0,0-13.58-1h-7.53l-.45,7.52c-1.33,22.08-2,36.85-2,45.16Z"/><path d="M395.17,234.33h-7.95c-7.08,0-19.66-1.06-43.46-3.27l-.59-.05-.23,0-.58-.13c-20-4.26-27-7.43-30.58-9.45l-5.73-3.26a2,2,0,0,1-1-2l.74-6.56c.48-4.26,1-8.68,1.68-13.45-3.56.09-7.11.14-10.61.14h-8.12a2,2,0,0,1-2-1.59l-1.67-7.95a92.54,92.54,0,0,1-1.77-19V159a2,2,0,0,1,1.74-2l8.69-1.15c6.71-.89,13.28-1.62,20-2.24.28-1.76.56-3.56.86-5.38-4.19.11-8.34.16-12.37.16h-8.12a2,2,0,0,1-2-1.59l-1.67-7.94a92.57,92.57,0,0,1-1.77-19V111a2,2,0,0,1,1.76-2l8.83-1c7.9-.94,15.5-1.7,23.2-2.34,1.54-7.14,3.16-14,4.55-19.88l.56-2.37c-19.22,2.21-38.32,4.06-56.81,5.51l-7.08.56a2,2,0,0,1-2-1.19l-2.86-6.5a34.68,34.68,0,0,1-2.75-14.21V51.17a2,2,0,0,1,1.72-2L266.55,48c43.92-6.06,87.73-11,134-15.13l8.59-.76a2,2,0,0,1,2.12,1.52l2,8.39a44.83,44.83,0,0,1,1.41,9.49,90.22,90.22,0,0,1,.44,9.36V69.4a2,2,0,0,1-1.68,2L405,72.72c-15.32,2.45-30.69,4.71-45.88,6.74l4.38.48a1.94,1.94,0,0,1,1.36.76,2,2,0,0,1,.4,1.52l-1.56,10.31q-.84,5.63-1.61,11.12c5.72-.15,11.54-.22,17.33-.22h9.07a2,2,0,0,1,2,1.81l.89,9c.23,2.43.49,5.28.49,8.33V139a2,2,0,0,1-1.67,2l-8.34,1.4c-8.49,1.43-16.93,2.52-25.74,3.33q-.42,2.91-.83,5.78c3.49-.07,6.65-.11,9.59-.11H374a2,2,0,0,1,2,1.83l.8,9.12c.24,2.69.48,5.47.48,8.71v9.72L380,181a80,80,0,0,1,14.8,3.21l7.28,2.37a2,2,0,0,1,1.38,2l-.38,7.65A163,163,0,0,1,398.91,225l-1.79,7.75A2,2,0,0,1,395.17,234.33ZM343.66,227l.46,0c23.69,2.2,36.18,3.25,43.1,3.25h6.36l1.44-6.2a158.87,158.87,0,0,0,4.1-28.06l.31-6.12-5.83-1.89A76,76,0,0,0,379.54,185l-4.51-.57a2,2,0,0,1-1.75-2V171c0-3.07-.23-5.75-.46-8.35l-.64-7.31h-7.33c-3.56,0-7.44.05-11.86.16a2,2,0,0,1-1.54-.67,2,2,0,0,1-.49-1.61l.22-1.53c.39-2.68.78-5.41,1.17-8.15a2,2,0,0,1,1.81-1.72c9.28-.8,18.12-1.92,27-3.42l6.67-1.13V122.59c0-2.87-.25-5.6-.47-7.94l-.71-7.22H379.4c-6.56,0-13.15.1-19.58.28a2,2,0,0,1-2-2.28l.29-2c.53-3.79,1.07-7.61,1.66-11.47L361,83.69l-8.29-.9c-3.16-.34-6.25-.82-9.19-1.42a2,2,0,0,1,.15-3.94c20-2.5,40.39-5.41,60.7-8.66l6.74-1.08V60.87a86.22,86.22,0,0,0-.43-9c0-.06,0-.11,0-.17a40.27,40.27,0,0,0-1.3-8.72l-1.61-6.72-6.88.62C354.7,41,311,45.91,267.09,52l-6.9.95V67.54a30.82,30.82,0,0,0,2.41,12.6l2.29,5.2,5.66-.45c19.35-1.51,39.36-3.47,59.5-5.82a2,2,0,0,1,2.18,2.45L331,86.67c-1.48,6.23-3.21,13.62-4.83,21.24a2,2,0,0,1-1.8,1.58c-8.16.65-16.19,1.45-24.54,2.44l-7.06.84v7.1a88,88,0,0,0,1.69,18.18l1.33,6.36h6.5c4.76,0,9.7-.07,14.67-.22a2,2,0,0,1,2,2.33c-.53,3.16-1,6.27-1.49,9.27a2,2,0,0,1-1.8,1.68c-7.25.65-14.25,1.42-21.42,2.37l-7,.91v7A88.06,88.06,0,0,0,289,186l1.33,6.36h6.5c4.23,0,8.55-.07,12.85-.2a2,2,0,0,1,2,2.27c-.78,5.64-1.43,10.77-2,15.69l-.59,5.25,4.59,2.61c3.32,1.88,10,4.86,29.44,9ZM413.08,69.4h0Zm-45.5,128h-.22c-6.54-.71-13.33-1.56-20.18-2.53a2,2,0,0,1-1.7-2.25l.19-1.46a2,2,0,0,1,1.8-1.72c6.36-.58,12.79-1.4,19.13-2.46l2.42-.4a2,2,0,0,1,2.26,2.49l-.48,1.81c-.42,1.59-.86,3.28-1.28,5A2,2,0,0,1,367.58,197.44Zm-9.48-5.12c2.68.33,5.34.65,8,.94.19-.74.38-1.48.56-2.2Q362.38,191.77,358.1,192.32Z"/><path d="M679.31,216.06h-6.52a2,2,0,0,1-1.83-1.2l-2.63-6c-1.86-4.23-2.87-9.11-3.18-15.36l-.36-7.42a2,2,0,0,1,1.33-2l7-2.49c.85-.3,1.73-.59,2.62-.87q-.84-9-1.7-18.19l0-.35c-2.21-23.56-4.49-47.93-6.65-72.66l-.76-8.69a2,2,0,0,1,1.55-2.13l8.5-1.93c4-.9,9.34-2,15.59-2.9l10-1.36a2,2,0,0,1,2.25,1.72l1.31,10h0c4.81,36.5,8.13,75.06,9.87,114.6l.31,7a2,2,0,0,1-1.24,1.94l-6.5,2.67A75.69,75.69,0,0,1,679.31,216.06Zm-5.22-4h5.22a71.7,71.7,0,0,0,27.37-5.29l5.2-2.14-.25-5.61c-1.73-39.43-5-77.87-9.83-114.26l-1-8-8,1.09c-6.1.83-11.35,2-15.25,2.84l-6.8,1.55.6,7c2.16,24.72,4.44,49.08,6.65,72.64l0,.35q.94,10,1.86,19.82a2,2,0,0,1-1.44,2.11c-1.37.39-2.71.82-4,1.27l-5.6,2,.29,5.94A38.69,38.69,0,0,0,672,207.28Z"/><path d="M584.39,239.26c-4.68,0-8-.47-10.78-1.52l-5.81-2.2a2,2,0,0,1-1.28-1.68l-.6-6.19c-.43-4.57-.84-9.07-1.2-13.42q-2.19,1.35-4.19,2.55l-1.13.68c-4.2,2.65-8.11,4.74-11.89,6.76l-7,3.75a2,2,0,0,1-2.44-.44l-5.26-5.93a52.77,52.77,0,0,1-10-15.91l-2.53-6.47a2,2,0,0,1,.53-2.22l5.19-4.63a116.17,116.17,0,0,1,11.35-9l.35-.23c2.8-1.8,5.46-3.49,8.09-5.29l-9.57-.81-9.14-.79a2,2,0,0,1-1.83-2v-9.18c0-9.29.4-18.11,1.23-26.93a25.11,25.11,0,0,1-2.1-10.84c0-4.87.5-8.38,1.64-11.39l2.35-6.23a2,2,0,0,1,1.8-1.29l6.65-.24c4.95-.18,12.55-.49,22.61-.94q0-1.86-.06-3.57c-8.54-.41-17.59-.87-26.91-1.39l-7.92-.44a2,2,0,0,1-1.86-1.65l-1.38-7.81a53.33,53.33,0,0,1-.61-9.49,34.77,34.77,0,0,1,1.47-11.16l2.26-6.87a2,2,0,0,1,1.9-1.37h10.83c-1.81-3.37-3.52-7-5.11-10.78l-2.7-6.45a2,2,0,0,1,.49-2.24L535,39.22A49.11,49.11,0,0,1,551,29.41l7.23-2.74a2,2,0,0,1,2.34.71l4.47,6.31C572,43.4,577,52.37,580,60.34l1.35,3.58.8,0,2,.06a82.9,82.9,0,0,1,10.39-27.29l4-6.8a2,2,0,0,1,2.33-.89l7.55,2.39A89.31,89.31,0,0,1,622,36.83l6.54,3.31a2,2,0,0,1,1.07,2.1l-1.18,7.24a83.4,83.4,0,0,1-4.44,16.72l3.07.23,7.06.55a2,2,0,0,1,1.78,1.48l1.83,6.84c1.31,4.86,2.13,12.37,2.53,22.93l2-.32a103.86,103.86,0,0,1,16.91-1.39h9.12a2,2,0,0,1,2,1.81l.84,9.09c1.77,19.28,3.35,39.65,4.81,62.29h0l.55,8.68a2,2,0,0,1-1.59,2.08l-8.51,1.76A79.16,79.16,0,0,1,650,183.72h-5.58c-.57,10.42-1.51,17.83-2.86,22.62l-2.06,7.27a2,2,0,0,1-1.92,1.46H630c-6.65,0-15.37-.52-25.92-1.54l-1.14-.11q.1,6.27.18,12.47l.08,6.69a2,2,0,0,1-1.22,1.87l-6.16,2.62A28.93,28.93,0,0,1,584.39,239.26Zm-14-7L575,234c2.3.88,5.19,1.26,9.36,1.26a25.12,25.12,0,0,0,9.86-1.87l4.93-2.1-.06-5.35q-.09-7.29-.22-14.69a2,2,0,0,1,.64-1.5,2,2,0,0,1,1.55-.52l3.38.32c10.41,1,19,1.52,25.53,1.52h6l1.65-5.82c1.33-4.71,2.28-12.66,2.81-23.63a2,2,0,0,1,2-1.9H650a75.72,75.72,0,0,0,15.52-1.4l6.81-1.41-.45-6.94c-1.45-22.6-3-42.94-4.79-62.19l-.67-7.26h-7.3a101.69,101.69,0,0,0-16.27,1.33l-4.23.69a2,2,0,0,1-1.59-.43,2,2,0,0,1-.73-1.48c-.35-11.29-1.18-19.47-2.47-24.3l-1.47-5.47-5.64-.44c-1.84-.14-3.78-.29-5.82-.43a2,2,0,0,1-1.57-1,2,2,0,0,1-.12-1.83,76.37,76.37,0,0,0,5.23-18.36l1-5.79-5.24-2.64a85.56,85.56,0,0,0-12.93-5.18l-6-1.91-3.24,5.45a78.68,78.68,0,0,0-10.19,27.62,2,2,0,0,1-2,1.67L582,67.93l-2.11,0a2,2,0,0,1-1.84-1.29l-1.83-4.86C573.35,54.1,568.49,45.44,561.8,36l-3.57-5-5.79,2.19a45.09,45.09,0,0,0-14.75,9L533.57,46l2.16,5.17a115.69,115.69,0,0,0,6.57,13.33,2,2,0,0,1-1.73,3h-12.8L526,72.93a31.07,31.07,0,0,0-1.27,9.91,50.1,50.1,0,0,0,.55,8.8l1.1,6.25,6.34.35c10,.55,19.69,1.05,28.77,1.47a2,2,0,0,1,1.91,2c0,2.27,0,4.68.11,7.35a2,2,0,0,1-1.91,2c-11,.49-19.32.84-24.6,1l-5.32.19-1.88,5a28.18,28.18,0,0,0-1.38,10,20.89,20.89,0,0,0,1.93,9.55,2,2,0,0,1,.21,1.11c-.86,8.88-1.27,17.75-1.27,27.11v7.35l7.31.62,15.48,1.3a2,2,0,0,1,.86,3.71c-.75.45-1.49.88-2.23,1.3l-.68.43c-3.33,2.36-6.62,4.47-10.1,6.7l-.28.18a112.73,112.73,0,0,0-11,8.73l-4.15,3.71,2,5.18A49,49,0,0,0,535.8,219l4.22,4.75,5.59-3c3.74-2,7.58-4.05,11.69-6.64l1.16-.7c2.13-1.3,4.48-2.71,6.94-4.24a2,2,0,0,1,3.05,1.54c.42,5.32.91,10.91,1.45,16.6ZM601.05,182h-.89a2,2,0,0,1-2-1.9V180a2,2,0,0,1,2.13-2l.9.06a2,2,0,0,1-.14,4Zm35.54-34.9h-.1l-3-.15h-.29c-11.42-.58-23.22-1.17-34.84-1.88a2,2,0,0,1-1.88-1.89v-.32a2,2,0,0,1,1.89-2.09c15.45-.82,25.27-2.06,30.91-3.89l2.08-.67,1.45-1.65a10.48,10.48,0,0,0,1.12-1.53,2,2,0,0,1,3.71.86c.3,3.67.64,7.38,1,11a2,2,0,0,1-2,2.19Zm-3-4.15.74,0c-.13-1.27-.25-2.55-.36-3.83l-.08.09a1.94,1.94,0,0,1-.88.58l-2.61.85a53.77,53.77,0,0,1-7.46,1.74l10.36.52Zm-37.35-33.08a2,2,0,0,1-2-1.86l-.33-4.8a2,2,0,0,1,.55-1.52,2.06,2.06,0,0,1,1.5-.62c2.75.09,5.39.16,7.94.22a2,2,0,0,1,1.95,2l.09,4.27a2,2,0,0,1-1.92,2l-7.72.27Zm1.82-4.73,0,.67,3.8-.13v-.44Z"/><path d="M887.76,234.33h-8c-7.08,0-19.66-1.06-43.47-3.27l-.58-.05-.23,0-.58-.13c-20-4.26-27-7.43-30.58-9.45l-5.73-3.26a2,2,0,0,1-1-2l.74-6.56c.48-4.26,1-8.68,1.67-13.45-3.55.09-7.11.14-10.6.14h-8.13a2,2,0,0,1-2-1.59l-1.67-7.95a92.47,92.47,0,0,1-1.77-19V159a2,2,0,0,1,1.73-2l8.69-1.15c6.71-.89,13.28-1.62,20-2.24.27-1.76.56-3.56.85-5.38-4.16.11-8.31.16-12.36.16h-8.13a2,2,0,0,1-2-1.59l-1.67-7.94a92.5,92.5,0,0,1-1.77-19V111a2,2,0,0,1,1.76-2l8.83-1c7.9-.94,15.5-1.7,23.2-2.34,1.55-7.16,3.16-14,4.55-19.88l.56-2.37c-19.23,2.21-38.32,4.06-56.81,5.51l-7.08.56a2,2,0,0,1-2-1.19l-2.86-6.5a34.52,34.52,0,0,1-2.76-14.21V51.17a2,2,0,0,1,1.73-2L759.13,48c43.92-6.06,87.73-11,134-15.13l8.6-.76a2,2,0,0,1,2.12,1.52l2,8.4a44.66,44.66,0,0,1,1.41,9.48,93.09,93.09,0,0,1,.44,9.36V69.4a2,2,0,0,1-1.69,2l-8.42,1.35c-15.31,2.45-30.69,4.71-45.88,6.74l4.38.48a2,2,0,0,1,1.37.76,2,2,0,0,1,.4,1.52l-1.56,10.31q-.84,5.63-1.61,11.12c5.72-.15,11.53-.22,17.33-.22h9.07a2,2,0,0,1,2,1.81l.88,9a83.28,83.28,0,0,1,.5,8.33V139a2,2,0,0,1-1.67,2l-8.34,1.4c-8.49,1.43-16.93,2.52-25.75,3.33-.27,1.94-.55,3.87-.82,5.78,3.49-.07,6.65-.11,9.59-.11h9.16a2,2,0,0,1,2,1.83l.8,9.12c.24,2.71.48,5.48.48,8.71v9.72l2.75.34a79.6,79.6,0,0,1,14.81,3.21l7.28,2.37a2,2,0,0,1,1.38,2l-.38,7.65A163,163,0,0,1,891.5,225l-1.79,7.75A2,2,0,0,1,887.76,234.33ZM836.25,227l.46,0c23.69,2.2,36.18,3.25,43.1,3.25h6.36l1.44-6.2a159.8,159.8,0,0,0,4.1-28.06L892,190l-5.83-1.89A75.25,75.25,0,0,0,872.12,185l-4.5-.57a2,2,0,0,1-1.75-2V171c0-3-.23-5.74-.46-8.34l-.64-7.32h-7.33c-3.56,0-7.44.05-11.86.16a1.92,1.92,0,0,1-1.54-.67,2,2,0,0,1-.49-1.61l.22-1.56c.4-2.72.78-5.41,1.17-8.12a2,2,0,0,1,1.8-1.72c9.29-.8,18.13-1.92,27-3.42l6.68-1.13V122.59c0-2.75-.23-5.44-.48-7.94l-.7-7.22H872c-6.56,0-13.15.1-19.58.28a2,2,0,0,1-1.55-.66,2,2,0,0,1-.49-1.62l.3-2.15q.8-5.61,1.64-11.34l1.25-8.25-8.29-.9c-3.17-.34-6.26-.82-9.19-1.42a2,2,0,0,1,.15-3.94c20-2.49,40.38-5.41,60.7-8.66l6.74-1.08V60.87a86.22,86.22,0,0,0-.43-9,1,1,0,0,1,0-.17,40.9,40.9,0,0,0-1.3-8.72l-1.61-6.72-6.88.62c-46.16,4.11-89.91,9-133.76,15.1l-6.91.95V67.54a30.66,30.66,0,0,0,2.42,12.6l2.29,5.2,5.66-.45c19.34-1.51,39.36-3.47,59.5-5.82a2,2,0,0,1,2.17,2.45l-1.22,5.15c-1.48,6.21-3.21,13.59-4.84,21.24a2,2,0,0,1-1.79,1.58c-8.16.65-16.19,1.45-24.54,2.44l-7.06.84v7.1a87.93,87.93,0,0,0,1.69,18.18l1.33,6.36h6.5c4.79,0,9.73-.07,14.67-.22a2,2,0,0,1,1.56.68,2,2,0,0,1,.47,1.64c-.52,3.17-1,6.28-1.48,9.28a2,2,0,0,1-1.8,1.68c-7.25.65-14.26,1.42-21.42,2.37l-7,.91v7A88.06,88.06,0,0,0,781.62,186l1.33,6.36h6.5c4.23,0,8.55-.07,12.84-.2a2,2,0,0,1,2.05,2.27c-.79,5.64-1.43,10.78-2,15.69l-.59,5.25,4.59,2.61c3.31,1.88,10,4.86,29.44,9ZM905.67,69.4h0Zm-45.5,128H860c-6.54-.71-13.33-1.56-20.18-2.53a2,2,0,0,1-1.71-2.25l.2-1.46a2,2,0,0,1,1.8-1.72c6.35-.58,12.79-1.4,19.12-2.46l2.42-.4a2,2,0,0,1,2.27,2.49l-.48,1.81c-.42,1.59-.86,3.28-1.28,5A2,2,0,0,1,860.17,197.44Zm-9.49-5.12c2.69.33,5.35.65,8,.94.18-.74.37-1.48.56-2.2C856.38,191.53,853.53,192,850.68,192.32Z"/><path d="M564.8,153h-.11c-1.65-.1-3.32-.16-5-.23-1.56-.07-3.15-.13-4.77-.22a2,2,0,0,1-1.89-2,57.79,57.79,0,0,1,.43-6.1,2,2,0,0,1,2-1.79c3.18,0,6.19,0,9-.09a2,2,0,0,1,1.45.57,2,2,0,0,1,.61,1.43c0,2.07.1,4.17.3,6.23a2,2,0,0,1-2,2.2Zm-7.74-4.35,2.77.12,2.8.12c0-.76-.09-1.51-.11-2.27-1.71,0-3.47,0-5.3,0C557.16,147.32,557.1,148,557.06,148.65Z"/></svg>