<svg id="圖層_1" data-name="圖層 1" xmlns="http://www.w3.org/2000/svg" viewBox="0 0 268 52"><path d="M19.86,49q-2.43,0-4.68-.18a16.88,16.88,0,0,1-3.9-.75A7.68,7.68,0,0,1,8.59,46.5a26.56,26.56,0,0,1-2.44-2.62,10.73,10.73,0,0,1-2-3.71,15.67,15.67,0,0,1-.75-3.7,37,37,0,0,1-.07-3.73q0-2.05.11-7.07t.26-7.2c.13-1.45.27-2.69.45-3.73a23.94,23.94,0,0,1,.72-3.07,11.2,11.2,0,0,1,1.39-2.9A11.07,11.07,0,0,1,8.61,6.21,12.28,12.28,0,0,1,12,4.31a12.45,12.45,0,0,1,4.71-.63A41.93,41.93,0,0,1,21.08,4a18.23,18.23,0,0,1,3.24.8A23.43,23.43,0,0,1,27.27,6a6.54,6.54,0,0,1,2.3,2,12,12,0,0,1,1.64,3.26A22.83,22.83,0,0,1,32.05,17a42.55,42.55,0,0,1,.09,4.64,10,10,0,0,1-.46,2,5.6,5.6,0,0,1-.94,1.8,3.82,3.82,0,0,1-1.46,1,7.6,7.6,0,0,1-2.78.38,8.25,8.25,0,0,1-2.86-.38,2.79,2.79,0,0,1-1.46-1.92,10.63,10.63,0,0,1-.49-3.26c0-1.14,0-2.11-.09-2.9A6.52,6.52,0,0,0,20.87,16a2.82,2.82,0,0,0-2.69-1.26,5.06,5.06,0,0,0-3.29.89A8.77,8.77,0,0,0,12.78,18a10.93,10.93,0,0,0-1.26,2.86c-.25.94-.53,2.06-.84,3.37a42.05,42.05,0,0,0-.8,4.6c-.22,1.75-.38,3.06-.47,3.93s-.17,1.85-.23,2.91a10.32,10.32,0,0,0,.32,3.24,5,5,0,0,0,1.32,2.48,5.34,5.34,0,0,0,2.34,1.24,6.52,6.52,0,0,0,2.91.14,5.38,5.38,0,0,0,2.55-1.17A7.59,7.59,0,0,0,20.52,39a8.21,8.21,0,0,0,.89-2.75,9.65,9.65,0,0,1,.37-2,3.85,3.85,0,0,1,.87-1.5A3.21,3.21,0,0,1,24.36,32a3.66,3.66,0,0,1,2.23.23,5.69,5.69,0,0,1,2,1.41c.58.62,1.15,1.3,1.73,2a3.89,3.89,0,0,1,.87,2.51,16.16,16.16,0,0,1-.38,3.24,9.44,9.44,0,0,1-1.38,3.32,11.13,11.13,0,0,1-1.64,2.09,10.58,10.58,0,0,1-2.08,1.31Q24.23,48.82,19.86,49Z"/><path d="M43.68,49.2a7,7,0,0,1-3.1-.71c-1-.46-2-1.77-3-3.91s-1.31-6.69-.78-13.66A44.24,44.24,0,0,1,38.35,24,13.63,13.63,0,0,1,42,18.21a8.72,8.72,0,0,1,5.61-2,45.19,45.19,0,0,1,6.07.35,10.64,10.64,0,0,1,4,2.07,17.94,17.94,0,0,1,3.59,4.14A23.23,23.23,0,0,1,64.09,29a21.88,21.88,0,0,1,.77,7.71,30.93,30.93,0,0,1-1.31,3.49,10.36,10.36,0,0,1-2.16,3.17c-3,2.93-5.91,4.64-8.83,5.1A55.79,55.79,0,0,1,43.68,49.2Zm6.84-7.46a8.19,8.19,0,0,0,4.78-4.35,7.54,7.54,0,0,0,.35-5.47A7.23,7.23,0,0,0,52.56,28a5.11,5.11,0,0,0-4.6-.54c-1.57.56-2.6,1.93-3.07,4.1a47.31,47.31,0,0,0-.86,5,6.4,6.4,0,0,0,.79,3.61A3.73,3.73,0,0,0,48.46,42Z"/><path d="M96.13,49.15a5.34,5.34,0,0,1-1.83-4,9.08,9.08,0,0,1,.33-3A6.23,6.23,0,0,0,95,40a30.59,30.59,0,0,0-.07-3.11A9.22,9.22,0,0,0,94.35,34,4.7,4.7,0,0,0,93,32.18,3,3,0,0,0,90,34a48.44,48.44,0,0,1-.18,8,21.68,21.68,0,0,1-2,7.17H86.24a17.12,17.12,0,0,1-1.92-.75,3.76,3.76,0,0,1-1.6-1.29,2.92,2.92,0,0,1-.56-1.64,8.71,8.71,0,0,1,.47-2.34,13.72,13.72,0,0,0,.47-3.92v-5l-.52-1.78a6.07,6.07,0,0,0-2.76-2.18,4.15,4.15,0,0,0-2.42,0c-.76.23-1.15,3-1.15,8.32l.28,8c0,1.91-1,2.83-2.76,2.77A4,4,0,0,1,70,46.81q-.42-4.17-.75-8.67a71.87,71.87,0,0,1-.09-9l.19-8.95-.19-1.5A3.29,3.29,0,0,1,71.82,16a11,11,0,0,1,3.64.05,3.88,3.88,0,0,1,1.73,4.13,13.32,13.32,0,0,1,3.28-1.39,4.18,4.18,0,0,1,3,.54q2.25,1.08,3.89,4.69A7.48,7.48,0,0,1,93,21.05a18.46,18.46,0,0,1,6.56.54,7.45,7.45,0,0,1,2,4.5,29.15,29.15,0,0,0,.94,5l.28,13.55c-.38,2.19-.9,3.54-1.57,4.06S98.82,49.37,96.13,49.15Z"/><path d="M112.25,49.15A8.57,8.57,0,0,1,108.06,44c-.74-2.31-1.06-6.14-1-11.5s0-10.64-.11-15.82c.34-3.91.53-6.89.56-9s1.61-3.12,4.73-3.18c2.94.25,4.24,1.21,3.89,2.9a40.86,40.86,0,0,0-.56,7.22,57.84,57.84,0,0,0,.28,7.31,17.47,17.47,0,0,1,7.43.71,12.34,12.34,0,0,1,4.1,2.18,35.72,35.72,0,0,1,2.75,2.95c1,1.23,1.57,3.19,1.57,5.86v5.6a5.86,5.86,0,0,1-.87,3.05,10.8,10.8,0,0,1-2.67,2.86,18.51,18.51,0,0,1-3.38,2.13,25.32,25.32,0,0,1-5.08,1.45A25.82,25.82,0,0,1,112.25,49.15ZM121.82,41a4.15,4.15,0,0,0,1.54-2.53,8.64,8.64,0,0,0,.19-3.82,10.08,10.08,0,0,0-.75-2.74c-.28-.53-1.2-1.1-2.77-1.71a6.2,6.2,0,0,0-3.42-.63c-.72.18-1.12.92-1.22,2.2a38.93,38.93,0,0,0,.1,5.25c.15,2.22.73,3.59,1.73,4.13S119.75,41.62,121.82,41Z"/><path d="M151.58,49c-1.62,0-3.19-.06-4.69-.18A16.79,16.79,0,0,1,143,48a7.68,7.68,0,0,1-2.69-1.53,25.41,25.41,0,0,1-2.44-2.62,10.92,10.92,0,0,1-2-3.71,16.74,16.74,0,0,1-.75-3.7c-.07-1.11-.1-2.35-.07-3.73s.07-3.73.12-7.07.13-5.75.26-7.2.27-2.69.44-3.73a25.8,25.8,0,0,1,.73-3.07A11.16,11.16,0,0,1,138,8.77a11.35,11.35,0,0,1,2.37-2.56,12.28,12.28,0,0,1,3.4-1.9,12.45,12.45,0,0,1,4.71-.63A42.16,42.16,0,0,1,152.8,4a17.92,17.92,0,0,1,3.23.8A23,23,0,0,1,159,6a6.43,6.43,0,0,1,2.29,2,11.7,11.7,0,0,1,1.65,3.26,23.29,23.29,0,0,1,.84,5.77,42.55,42.55,0,0,1,.09,4.64,10.15,10.15,0,0,1-.47,2,5.41,5.41,0,0,1-.93,1.8,3.82,3.82,0,0,1-1.46,1,7.63,7.63,0,0,1-2.79.38,8.33,8.33,0,0,1-2.86-.38,2.78,2.78,0,0,1-1.45-1.92,10.63,10.63,0,0,1-.49-3.26c0-1.14,0-2.11-.09-2.9a6.52,6.52,0,0,0-.73-2.42q-.63-1.21-2.7-1.26a5,5,0,0,0-3.28.89A8.77,8.77,0,0,0,144.5,18a10.93,10.93,0,0,0-1.26,2.86c-.25.94-.53,2.06-.85,3.37a44.8,44.8,0,0,0-.79,4.6c-.22,1.75-.38,3.06-.47,3.93s-.17,1.85-.24,2.91a10.64,10.64,0,0,0,.33,3.24,5.09,5.09,0,0,0,1.31,2.48,5.44,5.44,0,0,0,2.35,1.24,6.48,6.48,0,0,0,2.9.14,5.42,5.42,0,0,0,2.56-1.17,7.59,7.59,0,0,0,1.9-2.55,8.21,8.21,0,0,0,.89-2.75,9.65,9.65,0,0,1,.37-2,3.85,3.85,0,0,1,.87-1.5,3.21,3.21,0,0,1,1.71-.84,3.66,3.66,0,0,1,2.23.23,5.69,5.69,0,0,1,2,1.41c.57.62,1.15,1.3,1.73,2a3.89,3.89,0,0,1,.87,2.51,16.16,16.16,0,0,1-.38,3.24,9.44,9.44,0,0,1-1.38,3.32,11.13,11.13,0,0,1-1.64,2.09,10.41,10.41,0,0,1-2.09,1.31Q156,48.82,151.58,49Z"/><path d="M175.39,49.2a7,7,0,0,1-3.09-.71c-1-.46-2-1.77-3-3.91s-1.31-6.69-.78-13.66A44.24,44.24,0,0,1,170.07,24a13.63,13.63,0,0,1,3.68-5.82,8.69,8.69,0,0,1,5.6-2,45.24,45.24,0,0,1,6.08.35,10.64,10.64,0,0,1,4,2.07A17.94,17.94,0,0,1,193,22.78,23.87,23.87,0,0,1,195.81,29a21.88,21.88,0,0,1,.77,7.71,30.93,30.93,0,0,1-1.31,3.49,10.36,10.36,0,0,1-2.16,3.17c-3,2.93-5.91,4.64-8.83,5.1A56,56,0,0,1,175.39,49.2Zm6.85-7.46A8.19,8.19,0,0,0,187,37.39a7.54,7.54,0,0,0,.35-5.47A7.23,7.23,0,0,0,184.28,28a5.11,5.11,0,0,0-4.6-.54q-2.37.84-3.07,4.1a42.64,42.64,0,0,0-.86,5,6.4,6.4,0,0,0,.79,3.61c.64,1.22,1.85,1.83,3.64,1.83Z"/><path d="M227.85,49.15a5.34,5.34,0,0,1-1.83-4,9.08,9.08,0,0,1,.33-3,6.23,6.23,0,0,0,.37-2.18,30.59,30.59,0,0,0-.07-3.11,9.22,9.22,0,0,0-.58-2.84,4.7,4.7,0,0,0-1.32-1.83,3,3,0,0,0-3,1.78,48.44,48.44,0,0,1-.18,8,21.92,21.92,0,0,1-2,7.17H218A18,18,0,0,1,216,48.4a3.79,3.79,0,0,1-1.59-1.29,2.92,2.92,0,0,1-.56-1.64,8.33,8.33,0,0,1,.47-2.34,13.72,13.72,0,0,0,.47-3.92v-5l-.52-1.78a6,6,0,0,0-2.77-2.18,4.12,4.12,0,0,0-2.41,0q-1.16.35-1.15,8.32l.28,8c0,1.91-.95,2.83-2.76,2.77a4,4,0,0,1-3.8-2.53q-.42-4.17-.75-8.67a71.87,71.87,0,0,1-.09-9l.18-8.95-.18-1.5A3.28,3.28,0,0,1,203.54,16a11,11,0,0,1,3.64.05,3.88,3.88,0,0,1,1.73,4.13,13.32,13.32,0,0,1,3.28-1.39,4.18,4.18,0,0,1,3.05.54c1.5.72,2.79,2.28,3.89,4.69a7.48,7.48,0,0,1,5.58-2.93,18.46,18.46,0,0,1,6.56.54,7.51,7.51,0,0,1,2,4.5,29.15,29.15,0,0,0,.94,5l.28,13.55c-.38,2.19-.9,3.54-1.57,4.06S230.53,49.37,227.85,49.15Z"/><path d="M244,49.15A8.57,8.57,0,0,1,239.78,44q-1.11-3.47-1-11.5t-.11-15.82c.34-3.91.53-6.89.56-9s1.61-3.12,4.73-3.18c2.94.25,4.24,1.21,3.89,2.9a40.86,40.86,0,0,0-.56,7.22,57.84,57.84,0,0,0,.28,7.31,17.47,17.47,0,0,1,7.43.71,12.44,12.44,0,0,1,4.1,2.18,34.18,34.18,0,0,1,2.74,2.95c1,1.23,1.58,3.19,1.58,5.86v5.6a5.86,5.86,0,0,1-.87,3.05,10.8,10.8,0,0,1-2.67,2.86,18.51,18.51,0,0,1-3.38,2.13,25.53,25.53,0,0,1-5.08,1.45A25.82,25.82,0,0,1,244,49.15ZM253.53,41a4.11,4.11,0,0,0,1.55-2.53,8.64,8.64,0,0,0,.19-3.82,10.08,10.08,0,0,0-.75-2.74c-.28-.53-1.2-1.1-2.77-1.71a6.2,6.2,0,0,0-3.42-.63c-.72.18-1.12.92-1.22,2.2a38.93,38.93,0,0,0,.1,5.25c.15,2.22.73,3.59,1.73,4.13S251.47,41.62,253.53,41Z"/></svg>