<?xml version="1.0" encoding="utf-8"?>
<!-- Generator: Adobe Illustrator 25.0.0, SVG Export Plug-In . SVG Version: 6.00 Build 0)  -->
<svg version="1.1" id="圖層_1" xmlns:sketch="http://www.bohemiancoding.com/sketch/ns"
	 xmlns="http://www.w3.org/2000/svg" xmlns:xlink="http://www.w3.org/1999/xlink" x="0px" y="0px" viewBox="0 0 62.2 12.6"
	 style="enable-background:new 0 0 62.2 12.6;" xml:space="preserve">
<style type="text/css">
	.st0{fill-rule:evenodd;clip-rule:evenodd;}
</style>
<desc></desc>
<g id="Page-1">
	<g id="Core" transform="translate(-87.000000, -342.000000)">
		<g id="menu" transform="translate(87.000000, 342.000000)">
			<path id="Shape" class="st0" d="M0,12h18v-2H0V12L0,12z M0,7h18V5H0V7L0,7z M0,0v2h18V0H0L0,0z"/>
		</g>
	</g>
</g>
<g>
	<path d="M32.8,6.9c0-2.2,0-4.4,0.1-5.6h-0.1c-0.5,1.9-2.4,6.9-3.7,10.6h-1.4c-1-3-3-8.6-3.5-10.6h-0.1c0.1,1.4,0.1,4,0.1,6v4.7
		h-1.5V0.2h2.3c1.3,3.6,3,8.3,3.4,9.8h0c0.3-1.1,2.2-6.3,3.6-9.8h2.3v11.7h-1.5V6.9z"/>
	<path d="M37.9,7.9c0,1.7,0.9,3,2.3,3c1.4,0,1.8-0.7,2.1-1.3h1.5c-0.3,1.1-1.3,2.6-3.6,2.6c-2.7,0-3.8-2.2-3.8-4.4
		c0-2.5,1.3-4.6,3.9-4.6c2.8,0,3.7,2.2,3.7,4c0,0.3,0,0.5,0,0.7H37.9z M42.5,6.8c0-1.4-0.7-2.5-2.2-2.5c-1.5,0-2.2,1-2.3,2.5H42.5z"
		/>
	<path d="M45.9,5.5c0-0.7,0-1.5,0-2.2h1.4c0,0.3,0.1,1.2,0.1,1.4c0.3-0.7,1-1.6,2.7-1.6c1.6,0,2.9,1,2.9,3.3v5.5h-1.5V6.6
		c0-1.3-0.5-2.2-1.8-2.2c-1.6,0-2.3,1.2-2.3,2.9v4.5h-1.5V5.5z"/>
	<path d="M62.2,9.4c0,0.8,0,2,0,2.5h-1.4c0-0.2-0.1-0.7-0.1-1.3c-0.4,0.9-1.2,1.5-2.6,1.5c-1.4,0-2.8-0.7-2.8-3.1V3.3h1.5v5.3
		c0,1.1,0.4,2.2,1.8,2.2c1.6,0,2.2-0.9,2.2-3V3.3h1.5V9.4z"/>
</g>
</svg>
